<?xml version="1.0" encoding="utf-8"?>
<!-- Generator: Adobe Illustrator 19.2.1, SVG Export Plug-In . SVG Version: 6.00 Build 0)  -->
<svg version="1.1" xmlns="http://www.w3.org/2000/svg" xmlns:xlink="http://www.w3.org/1999/xlink" x="0px" y="0px"
	 viewBox="0 0 310 110" enable-background="new 0 0 310 110" xml:space="preserve">
<g id="Layer_1" display="none">
	<g display="inline">
		<text transform="matrix(1 0 0 1 6.9211 59.3064)"><tspan x="0" y="0" font-family="'Phosphate-Inline'" font-size="75.1029px">RE </tspan><tspan x="93.4" y="0" fill="#C1272D" font-family="'Phosphate-Inline'" font-size="75.1029px">F</tspan><tspan x="127" y="0" fill="#C1272D" font-family="'Phosphate-Inline'" font-size="56.3272px">orms</tspan></text>
		<polygon fill="#C1272D" points="95.7,47.3 101.9,68 122.8,68 106.1,80.1 112.5,100.1 95.6,87.8 78.7,100 85,80 67,67.5 89,67.8 		
			"/>
		<polygon fill="#C1272D" stroke="#FFFFFF" stroke-miterlimit="10" points="89.7,78.3 80.1,71.7 91.9,71.9 95.5,60.9 99,72.5 
			110.5,72.5 101.5,78.8 105,89.8 95.6,82.9 86.1,89.7 		"/>
	</g>
</g>
<g id="Layer_4">
	<g>
		<g>
			<path d="M3.5,3.2h18.6c3.4,0,6.8,0.5,10,1.6c3.2,1,6.2,2.6,8.9,4.6c2.7,2,5.1,4.5,7.1,7.4c2,2.9,3.6,6.3,4.6,10.1
				c0.8,3,1.2,5.6,1,7.8c-0.2,2.1-0.5,3.9-1.1,5.3c-0.7,1.6-1.5,3-2.6,4.1l15.8,19.7l-20.7,0.9L32.8,49.3l4.1,15.6l-17.7,0.8
				L3.5,3.2z M30.8,43.5c2.1-0.1,4.2-0.4,6.1-0.9L48.6,57l2.6-0.1L38.8,41.8c2.6-1.2,4.5-3.1,5.6-5.5c1.1-2.4,1.1-5.6,0.1-9.4
				c-0.7-2.7-1.8-5-3.3-7c-1.5-2-3.2-3.7-5.1-5c-2-1.4-4.1-2.4-6.5-3.1c-2.4-0.7-4.8-1-7.3-1l-8.8,0l12,47.2l2.1-0.1l-3.6-14.1
				L30.8,43.5z M23.5,41.4l-7.3-28.6l6.7,0c4.9,0,9.1,1.2,12.6,3.6c3.4,2.4,5.8,5.9,7,10.4c1.2,4.5,0.7,8-1.4,10.5
				c-2.2,2.5-5.8,3.8-10.7,3.9L23.5,41.4z M28.7,33.6l0.9,0c2.1,0,3.7-0.6,4.9-1.7c1.2-1.1,1.4-2.8,0.8-5.3
				c-0.7-2.5-1.8-4.2-3.5-5.2c-1.7-1-3.6-1.5-5.7-1.5l-0.9,0L28.7,33.6z"/>
			<path d="M50.7,3.2h31.8l4.6,15.5l-14.7,0.2l1.9,6.6l14.4-0.2l4.4,14.7l-14.5,0.4l2,6.9L96,46.7l4.6,15.5l-33.2,1.4L50.7,3.2z
				 M92.4,55.4l-0.6-2.1l-16.5,0.6l-5.6-19.7l15.6-0.3l-0.6-2.1L69.1,32l-5.5-19.4l16.2-0.1l-0.6-2.1l-18.3,0.1l12.9,45.7L92.4,55.4
				z"/>
			<path d="M100.8,3.2h31.8l4.9,14.9l-14.7,0.2l2.1,6.4l14.4-0.2l4.7,14.2L129.6,39l7,21.7l-17.7,0.8L100.8,3.2z"/>
			<path d="M147.3,38.7c-1-3.1-1.4-6-1.2-8.7c0.2-2.7,1-5.1,2.2-7.2c1.3-2,3-3.6,5.2-4.8c2.2-1.2,4.8-1.8,7.7-1.8
				c2.9,0,5.9,0.5,8.9,1.6c3,1.1,5.8,2.6,8.5,4.6c2.6,1.9,5,4.2,7.1,6.8c2.1,2.6,3.7,5.4,4.7,8.4c1.1,3,1.5,5.8,1.4,8.4
				c-0.2,2.7-0.9,5-2.2,7.1c-1.3,2-3,3.7-5.3,4.9c-2.2,1.3-4.9,2-7.9,2.1c-3,0.1-6-0.3-9.1-1.4c-3-1-5.9-2.5-8.5-4.5
				c-2.6-1.9-5-4.2-7-6.9C149.8,44.6,148.3,41.8,147.3,38.7z M160.2,38.3c0.4,1.2,1,2.4,1.9,3.4c0.8,1.1,1.8,2,2.8,2.8
				c1.1,0.8,2.2,1.4,3.4,1.8c1.2,0.4,2.4,0.6,3.6,0.6s2.2-0.3,3.1-0.8c0.9-0.5,1.6-1.1,2.1-2c0.5-0.8,0.8-1.8,0.9-2.8
				c0.1-1.1-0.1-2.2-0.5-3.4c-0.4-1.2-1.1-2.3-1.9-3.4c-0.8-1-1.8-2-2.8-2.7c-1.1-0.8-2.2-1.4-3.4-1.8c-1.2-0.4-2.4-0.6-3.6-0.6
				c-1.2,0-2.2,0.3-3.1,0.8c-0.9,0.5-1.6,1.1-2.1,1.9c-0.5,0.8-0.8,1.8-0.9,2.9C159.6,36,159.8,37.1,160.2,38.3z"/>
			<path d="M186.3,16.9l14-0.2c2.6,0,5.1,0.3,7.6,1c2.5,0.7,4.8,1.6,6.9,2.9c2.1,1.3,4.1,2.9,5.7,4.8c1.7,1.9,3,4.1,4,6.7
				c0.8,2,1.2,3.7,1.1,5.1c0,1.4-0.2,2.6-0.6,3.5c-0.4,1.1-1,2-1.8,2.7l12.9,12.9l-15.5,0.7l-10.1-10l3.9,10.3l-13.2,0.6L186.3,16.9
				z M206.8,36.7l0.7,0c1.6,0,2.8-0.4,3.6-1.1c0.8-0.7,0.9-1.9,0.3-3.5c-0.6-1.6-1.6-2.8-2.9-3.4c-1.3-0.7-2.8-1-4.3-1l-0.7,0
				L206.8,36.7z"/>
			<path d="M221.9,16.5l10.7-0.1l16.8,14.9l4.4-15.2l10.7-0.1L281,54.6l-13.2,0.6l-5.9-14l-3.6,12l-13.3-11.5l5.7,14.2l-13.2,0.6
				L221.9,16.5z"/>
			<path d="M279.1,42.5c1,0.2,2.1,0.4,3.1,0.5c0.9,0.2,1.9,0.3,3,0.4c1.1,0.1,2.2,0.1,3.3,0.1c1.9-0.1,2.6-0.7,2-2
				c-0.2-0.5-0.7-1-1.5-1.5c-0.8-0.5-1.8-1-2.9-1.6c-1.2-0.6-2.4-1.3-3.8-2c-1.3-0.7-2.7-1.6-4-2.6c-1.3-1-2.5-2.1-3.6-3.3
				c-1.1-1.2-2-2.7-2.7-4.3c-0.8-1.8-1.1-3.4-1-4.8c0.1-1.4,0.6-2.6,1.4-3.5c0.8-0.9,2-1.6,3.4-2.1c1.4-0.5,3.1-0.7,5-0.8
				c1,0,2,0,3,0.1c1,0.1,1.9,0.2,2.7,0.2c0.9,0.1,1.9,0.2,2.8,0.3l4.8,10.6c-0.3,0-0.7-0.1-1.2-0.1c-0.3,0-0.7-0.1-1.2-0.1
				c-0.4,0-0.9,0-1.3,0c-0.2,0-0.5,0-0.9,0c-0.4,0-0.7,0.1-1,0.2c-0.3,0.1-0.5,0.2-0.7,0.4c-0.2,0.2-0.2,0.5,0,0.8
				c0.1,0.3,0.6,0.7,1.3,1.1c0.8,0.4,1.7,1,2.7,1.5c1.1,0.6,2.3,1.3,3.6,2c1.3,0.8,2.6,1.6,3.9,2.6c1.3,1,2.5,2.1,3.6,3.4
				c1.1,1.3,2.1,2.7,2.8,4.3c0.8,1.7,1.2,3.2,1.2,4.7c0.1,1.5-0.3,2.8-1,3.9c-0.7,1.1-1.9,2-3.5,2.7c-1.6,0.7-3.7,1.1-6.4,1.2
				c-1.6,0.1-3.1,0.1-4.5,0c-1.4-0.1-2.7-0.2-3.8-0.3c-1.3-0.1-2.5-0.3-3.6-0.5L279.1,42.5z"/>
			<polygon fill="#C1272D" points="104.1,43.1 118.4,67 141.6,65.9 127.4,80.8 141.9,103.5 118.4,90.4 103.9,106.1 103.8,82 
				79.6,68.2 104,67.5 			"/>
			<polygon fill="#C1272D" stroke="#FFFFFF" stroke-width="2" stroke-miterlimit="10" points="108.5,79.8 95.5,72.5 108.7,72.1 
				108.9,59.3 116.9,73 129.7,72.4 121.8,79.9 129.7,92.3 116.7,84.8 108.6,93.4 			"/>
		</g>
	</g>
</g>
</svg>
